<svg width="595" height="842" viewBox="0 0 595 842" fill="none" xmlns="http://www.w3.org/2000/svg">
<rect x="80" y="439" width="435" height="40" fill="black"/>
<rect x="80" y="639" width="435" height="40" fill="black"/>
<rect x="80" y="539" width="435" height="40" fill="black"/>
<rect x="80" y="339" width="435" height="40" fill="black"/>
<rect x="297" y="239" width="217.5" height="40" fill="black"/>
<path d="M130.28 280.92C123.56 280.92 117.32 279.88 111.56 277.8C105.88 275.64 100.92 272.6 96.68 268.68C92.52 264.76 89.28 260.12 86.96 254.76C84.64 249.4 83.48 243.48 83.48 237C83.48 230.52 84.64 224.6 86.96 219.24C89.28 213.88 92.52 209.24 96.68 205.32C100.92 201.4 105.88 198.4 111.56 196.32C117.32 194.16 123.56 193.08 130.28 193.08C138.52 193.08 145.8 194.52 152.12 197.4C158.52 200.28 163.8 204.44 167.96 209.88L150.08 225.84C147.6 222.72 144.84 220.32 141.8 218.64C138.84 216.88 135.48 216 131.72 216C128.76 216 126.08 216.48 123.68 217.44C121.28 218.4 119.2 219.8 117.44 221.64C115.76 223.48 114.44 225.72 113.48 228.36C112.52 230.92 112.04 233.8 112.04 237C112.04 240.2 112.52 243.12 113.48 245.76C114.44 248.32 115.76 250.52 117.44 252.36C119.2 254.2 121.28 255.6 123.68 256.56C126.08 257.52 128.76 258 131.72 258C135.48 258 138.84 257.16 141.8 255.48C144.84 253.72 147.6 251.28 150.08 248.16L167.96 264.12C163.8 269.48 158.52 273.64 152.12 276.6C145.8 279.48 138.52 280.92 130.28 280.92ZM202.537 279L167.017 195H197.497L226.417 265.92H208.297L238.057 195H265.897L230.377 279H202.537Z" fill="black"/>
<rect width="595" height="40" rx="20" fill="black"/>
<rect y="802" width="595" height="40" rx="20" fill="black"/>
<rect width="40" height="842" rx="20" fill="black"/>
<rect x="555" width="40" height="842" rx="20" fill="black"/>
</svg>
